# xmcd
#
# Track frame offsets:
# 150
# 16998
# 34539
# 52178
# 71960
# 90428
# 108163
# 125545
# 145353
# 163072
# 181938
# 201642
#
# Disc length: 2947 seconds
#
# Revision: 1
# Processed by: cddbd v1.4PL0 Copyright (c) Steve Scherf et al.
# Submitted via: CedeCatalogueitor 2.5 http://usuarios.lycos.es/kakasboy
#
DISCID=ad0b810c
DTITLE=Cafe Quijano - La Taberna Del Buda
DYEAR=1900
DGENRE=
TTITLE0=Nada De Na
TTITLE1=De Piñatas
TTITLE2=Desde Brasil
TTITLE3=Lucia, La Corista
TTITLE4=Que Le Debo A La Vida
TTITLE5=En Aquel Hotel Jamicano
TTITLE6=La Taberna Del Buda
TTITLE7=Tra Vez (Que Pena De Mi)
TTITLE8=Las Llaves De Raquel
TTITLE9=Que Poca Cosa
TTITLE10=En Mis Besos
TTITLE11=Otra Vez (Que Pena De Mi) Con Olga Tañon
EXTD=
EXTT0=
EXTT1=
EXTT2=
EXTT3=
EXTT4=
EXTT5=
EXTT6=
EXTT7=
EXTT8=
EXTT9=
EXTT10=
EXTT11=
PLAYORDER=
